<?xml version="1.0" encoding="UTF-8" standalone="no"?>
<svg
   xmlns:dc="http://purl.org/dc/elements/1.1/"
   xmlns:cc="http://creativecommons.org/ns#"
   xmlns:rdf="http://www.w3.org/1999/02/22-rdf-syntax-ns#"
   xmlns:svg="http://www.w3.org/2000/svg"
   xmlns="http://www.w3.org/2000/svg"
   xmlns:sodipodi="http://sodipodi.sourceforge.net/DTD/sodipodi-0.dtd"
   xmlns:inkscape="http://www.inkscape.org/namespaces/inkscape"
   inkscape:version="1.0 (4035a4f, 2020-05-01)"
   sodipodi:docname="spotify-web-api-ts-logo.svg"
   viewBox="0 0 630.00001 630.00001"
   height="630"
   width="630"
   xml:space="preserve"
   id="svg78"
   version="1.1"><metadata
     id="metadata84"><rdf:RDF><cc:Work
         rdf:about=""><dc:format>image/svg+xml</dc:format><dc:type
           rdf:resource="http://purl.org/dc/dcmitype/StillImage" /><dc:title></dc:title></cc:Work></rdf:RDF></metadata><defs
     id="defs82" /><sodipodi:namedview
     inkscape:current-layer="g88"
     inkscape:window-maximized="1"
     inkscape:window-y="23"
     inkscape:window-x="0"
     inkscape:cy="315"
     inkscape:cx="174.29675"
     inkscape:zoom="1.0269841"
     inkscape:snap-page="true"
     showgrid="false"
     id="namedview80"
     inkscape:window-height="855"
     inkscape:window-width="1440"
     inkscape:pageshadow="2"
     inkscape:pageopacity="0"
     guidetolerance="10"
     gridtolerance="10"
     objecttolerance="10"
     borderopacity="1"
     bordercolor="#666666"
     pagecolor="#ffffff" /><g
     transform="matrix(1.3333333,0,0,-1.3333333,0,226.73333)"
     inkscape:label="ink_ext_XXXXXX"
     inkscape:groupmode="layer"
     id="g86"><g
       style="fill:#000000"
       transform="matrix(0.1,0,0,0.1,-39.424268,7.8848535)"
       id="g88"><rect
         transform="scale(1,-1)"
         y="-1621.6515"
         x="394.24268"
         height="4725"
         width="4725"
         id="rect915"
         style="fill:#007acc;fill-opacity:1;stroke-width:63.0672" /><path
         id="path90"
         style="fill:#ffffff;fill-opacity:1;fill-rule:nonzero;stroke:none;stroke-width:1.5673"
         d="m 4170.6335,-1229.4071 c -423.0756,251.25145 -1120.9327,274.35355 -1524.8106,151.7754 -64.8594,-19.6853 -133.4474,16.9424 -153.0934,81.78135 -19.6587,64.9016 16.9158,133.4395 81.8236,153.1562 463.625,140.7274 1234.333,113.5505 1721.3858,-175.56845 58.3347,-34.6373 77.4713,-109.9772 42.8969,-168.2147 -34.606,-58.3332 -110.0086,-77.5623 -168.2023,-42.9298 z m -13.8549,-372.1403 c -29.6844,-48.1646 -92.6585,-63.2733 -140.7588,-33.6969 -352.7197,216.8135 -890.5622,279.6214 -1307.8545,152.9525 -54.1141,-16.3532 -111.2718,14.1604 -127.7096,68.171 -16.3046,54.1141 14.2217,111.1669 68.2385,127.6234 476.6959,144.6535 1069.3044,74.5876 1474.419,-174.3663 48.1003,-29.6267 63.2403,-92.6304 33.6654,-140.6837 z m -160.6007,-357.3918 c -23.5877,-38.6809 -73.945,-50.7976 -112.4848,-27.2209 -308.2133,188.3701 -696.1501,230.9081 -1153.0168,126.5591 -44.0253,-10.0949 -87.9033,17.4926 -97.9434,61.5164 -10.0842,44.0081 17.4,87.8923 61.5225,97.9387 499.9611,114.2949 928.8309,65.1039 1274.777,-146.2914 38.5711,-23.558 50.7177,-73.945 27.1455,-112.5019 z M 3394.2488,-65.84856 c -724.8679,0 -1312.5061,-587.62599 -1312.5061,-1312.48144 0,-724.9415 587.6382,-1312.5186 1312.5061,-1312.5186 724.8834,0 1312.494,587.5771 1312.494,1312.5186 0,724.85545 -587.6106,1312.48144 -1312.494,1312.48144" /></g></g></svg>
